<?xml version="1.0" standalone="no"?>
<svg xmlns="http://www.w3.org/2000/svg" version="1.1" xmlns:xlink="http://www.w3.org/1999/xlink" width="512" height="512" x="0" y="0" viewBox="0 0 24 24" style="enable-background:new 0 0 512 512" xml:space="preserve" class=""><g><g data-name="Layer 2"><path fill="#232323" d="M12 18.23a12.68 12.68 0 0 1-8.07-2.87l-2.46-2a1.74 1.74 0 0 1 0-2.7l2.46-2a12.77 12.77 0 0 1 16.14 0l2.46 2a1.74 1.74 0 0 1 0 2.7l-2.46 2A12.68 12.68 0 0 1 12 18.23zm0-11A11.21 11.21 0 0 0 4.88 9.8l-2.46 2a.25.25 0 0 0 0 .38l2.46 2a11.27 11.27 0 0 0 14.24 0l2.46-2a.25.25 0 0 0 0-.38l-2.46-2A11.21 11.21 0 0 0 12 7.26z" opacity="1" data-original="#232323" class=""/><path fill="#232323" d="M12 17.75a6 6 0 0 1-1.52-.2 5.75 5.75 0 1 1 3-11.1.75.75 0 1 1-.39 1.45 4.24 4.24 0 1 0 2.93 2.8.75.75 0 1 1 1.42-.46A5.75 5.75 0 0 1 12 17.75z" opacity="1" data-original="#232323" class=""/><path fill="#1b4b66" d="M15 12a3 3 0 1 1-2.2-2.89 1.47 1.47 0 0 0-.3.89 1.5 1.5 0 0 0 1.5 1.5 1.47 1.47 0 0 0 .89-.3 3 3 0 0 1 .11.8z" opacity="1" data-original="#7fbde7" class=""/></g></g></svg>