<svg width="38" height="38" viewBox="0 0 38 38" fill="none" xmlns="http://www.w3.org/2000/svg">
<circle cx="19" cy="19" r="19" fill="#639599"/>
<path d="M12.5087 20.7083H15.3488V32.4004C15.3488 32.6312 15.5358 32.8183 15.7667 32.8183H20.5821C20.8129 32.8183 21 32.6312 21 32.4004V20.7634H24.2648C24.4771 20.7634 24.6557 20.6041 24.68 20.3933L25.1758 16.0888C25.1895 15.9704 25.1519 15.8518 25.0727 15.763C24.9934 15.674 24.8799 15.6231 24.7608 15.6231H21.0001V12.9249C21.0001 12.1115 21.4381 11.6991 22.3019 11.6991C22.425 11.6991 24.7608 11.6991 24.7608 11.6991C24.9916 11.6991 25.1787 11.512 25.1787 11.2812V7.33015C25.1787 7.0993 24.9916 6.91226 24.7608 6.91226H21.3721C21.3482 6.91109 21.2951 6.90916 21.2169 6.90916C20.629 6.90916 18.5852 7.02459 16.9708 8.50976C15.1821 10.1556 15.4308 12.1262 15.4902 12.4678V15.6231H12.5087C12.2779 15.6231 12.0908 15.8101 12.0908 16.0409V20.2904C12.0908 20.5212 12.2779 20.7083 12.5087 20.7083Z" fill="#1B4B66"/>
</svg>
