<svg width="54" height="37" viewBox="0 0 54 37" fill="none" xmlns="http://www.w3.org/2000/svg">
<path d="M37.9487 1.69823C39.9101 0.734909 40.8821 0.861325 40.904 1.83776C40.9302 3.10619 40.7427 4.79296 40.6075 6.01346C39.8796 12.6471 38.6635 18.0677 38.572 24.8787C41.7757 16.5848 44.4607 10.8203 47.9215 3.72074C49.02 1.45851 49.7218 1.88134 50.624 1.4803C54.1372 -0.0844725 54.268 0.874433 53.8102 2.78798C52.106 9.87537 47.7428 32.1905 47.076 35.6266C46.8841 36.6208 45.8032 36.1993 45.5242 35.8105C44.2733 34.0801 42.8611 34.0531 43.0179 32.9024C43.8025 27.1735 46.6269 12.8001 47.3636 9.41329C43.6106 17.1074 39.7183 26.7259 37.7176 32.1797C37.2948 33.3378 36.5233 33.2528 36.0439 32.4054C35.3682 31.2151 34.0563 30.6074 33.8382 29.2008C33.154 24.7288 34.6229 16.2047 34.8277 10.812C32.7835 16.7029 29.3531 28.1399 27.8493 33.3072C27.2304 35.4452 25.1643 35.0965 25.7135 33.0126C27.9974 24.3408 32.9186 9.00356 35.0457 3.4897C35.5471 2.19072 36.859 2.2343 37.9487 1.69823Z" fill="#D51D1D"/>
<path d="M25.4915 0.634667C24.829 0.473427 22.9068 1.51082 21.7255 1.71565C21.3507 1.78103 20.9932 2.17765 20.8668 2.46104C18.9751 6.80674 17.2795 10.9493 15.8106 14.7231C13.932 15.0439 11.7352 15.4663 9.27684 16.0185C11.0378 11.5015 12.8162 7.04639 14.551 2.76172C15.4052 0.652041 13.1562 0.45156 12.2844 2.58738C11.151 5.36396 9.02833 10.5662 6.67893 16.6296C4.95284 17.0529 3.1222 17.5367 1.20865 18.0894C-0.181849 18.4908 -0.238442 18.8613 0.363083 19.6952C0.694326 20.1595 1.37867 20.1127 1.69246 20.4435C2.50323 21.3009 2.99578 22.3265 4.44717 22.4817C3.1526 25.9447 1.85805 29.5159 0.685558 32.9546C-0.0510703 35.113 2.04548 35.5545 2.85191 33.2705C4.15082 29.5886 5.51948 25.8623 6.92736 22.1469C8.09985 21.8744 10.9374 21.2633 13.557 20.6949C11.4779 26.3936 10.1092 30.7214 9.59054 32.8281C9.49468 33.2334 9.65591 33.4583 9.74309 33.6235C10.4448 34.6448 11.1117 34.6866 12.014 35.9493C12.2582 36.2937 13.0776 36.4794 13.3565 35.6316C15.2831 29.8121 17.2664 24.3519 19.1145 19.457C19.8816 19.2892 21.2633 18.9557 22.1089 17.6939C23.6126 15.4542 24.0441 15.9085 24.406 15.2276C24.8593 14.3729 24.5585 13.5704 22.9546 13.7687C22.9546 13.7687 22.3487 13.8118 21.2285 13.9395C23.0068 9.36067 24.5629 5.47697 25.6831 2.51742C26.0669 1.51516 26.1148 0.782876 25.4915 0.634667Z" fill="#D51D1D"/>
<path d="M22.8675 30.3327C23.2816 31.3793 24.5762 31.0623 24.0836 29.7992C23.5823 28.5124 22.3357 24.6388 22.0087 23.3909C21.5642 21.7093 23.4907 22.1691 22.5144 23.2685C21.6776 24.2138 21.1196 24.5926 19.5722 26.3902C18.0772 28.1254 18.4826 30.3772 20.0822 30.8746C21.8867 31.436 23.4777 29.4475 24.4628 27.9886C25.4173 26.576 24.4932 25.7474 23.53 26.5825C22.911 27.1195 22.1962 27.9441 21.4726 28.3888C20.8842 28.7466 20.4221 28.3622 21.2067 27.2821C22.1177 26.0316 23.1377 24.9838 23.8961 23.802C25.4435 21.3938 22.3836 20.0056 21.0672 21.5699C20.3611 22.4038 20.5398 23.2224 20.7316 23.925C21.0411 25.0504 22.1919 28.6429 22.8675 30.3327Z" fill="#D51D1D"/>
</svg>
