<svg width="38" height="38" viewBox="0 0 38 38" fill="none" xmlns="http://www.w3.org/2000/svg">
<circle cx="19" cy="19" r="19" fill="#639599"/>
<path fill-rule="evenodd" clip-rule="evenodd" d="M14.371 8.70395C15.5685 8.64931 15.9508 8.63638 19 8.63638C22.0491 8.63638 22.4315 8.64931 23.6289 8.70395C24.824 8.7585 25.6401 8.94826 26.3543 9.22582C27.0926 9.51274 27.7187 9.89664 28.3428 10.5208C28.967 11.145 29.3509 11.7711 29.6378 12.5094C29.9154 13.2235 30.1051 14.0397 30.1597 15.2347C30.2143 16.4322 30.2272 16.8145 30.2272 19.8637C30.2272 22.9128 30.2143 23.2952 30.1597 24.4926C30.1051 25.6877 29.9154 26.5038 29.6378 27.218C29.3509 27.9563 28.967 28.5824 28.3428 29.2066C27.7187 29.8307 27.0926 30.2146 26.3543 30.5015C25.6401 30.7791 24.824 30.9689 23.6289 31.0234C22.4315 31.078 22.0491 31.0909 19 31.0909C15.9508 31.0909 15.5685 31.078 14.371 31.0234C13.1759 30.9689 12.3598 30.7791 11.6456 30.5015C10.9074 30.2146 10.2812 29.8307 9.65708 29.2066C9.03292 28.5824 8.64902 27.9562 8.3621 27.218C8.08454 26.5038 7.89477 25.6877 7.84022 24.4926C7.78558 23.2952 7.77271 22.9128 7.77271 19.8637C7.77271 16.8145 7.78558 16.4322 7.84022 15.2347C7.89477 14.0397 8.08454 13.2235 8.3621 12.5094C8.64902 11.7711 9.03292 11.145 9.65708 10.5208C10.2812 9.89664 10.9074 9.51274 11.6456 9.22582C12.3598 8.94826 13.1759 8.7585 14.371 8.70395ZM24.9931 15.2178C25.7372 15.2178 26.3404 14.6146 26.3404 13.8705C26.3404 13.1264 25.7372 12.5233 24.9931 12.5233C24.249 12.5233 23.6458 13.1264 23.6458 13.8705C23.6458 14.6146 24.249 15.2178 24.9931 15.2178ZM24.2394 19.8634C24.2394 22.757 21.8936 25.1028 19 25.1028C16.1064 25.1028 13.7606 22.757 13.7606 19.8634C13.7606 16.9698 16.1064 14.624 19 14.624C21.8936 14.624 24.2394 16.9698 24.2394 19.8634ZM22.4545 19.8637C22.4545 21.7716 20.9079 23.3182 19 23.3182C17.0921 23.3182 15.5454 21.7716 15.5454 19.8637C15.5454 17.9558 17.0921 16.4091 19 16.4091C20.9079 16.4091 22.4545 17.9558 22.4545 19.8637Z" fill="#1B4B66"/>
</svg>
