<svg width="23" height="7" viewBox="0 0 23 7" fill="none" xmlns="http://www.w3.org/2000/svg">
<path d="M22.06 2.26563C21.8656 1.7096 21.3356 1.31032 20.7131 1.31032H20.7001C20.2954 1.31032 19.9307 1.47875 19.6711 1.74913C19.411 1.47875 19.0463 1.31032 18.6421 1.31032H18.6291C18.2734 1.31032 17.9482 1.44057 17.6985 1.65616V1.54657C17.69 1.43743 17.6001 1.35164 17.4892 1.35164H16.5343C16.4176 1.35164 16.3232 1.44596 16.3232 1.56319V6.74844C16.3232 6.86566 16.4176 6.95998 16.5343 6.95998H17.4892C17.5956 6.95998 17.6832 6.88048 17.6971 6.77763L17.6967 3.05521C17.6967 3.04218 17.6971 3.03006 17.6985 3.01793C17.7138 2.85175 17.8355 2.71521 18.0277 2.69815H18.0632H18.1633H18.2038C18.2842 2.70533 18.352 2.73363 18.4054 2.7763C18.4885 2.84232 18.5348 2.94382 18.5348 3.05521L18.5384 6.75922C18.5384 6.87644 18.6331 6.97121 18.7495 6.97121H19.7043C19.8171 6.97121 19.9087 6.88138 19.9141 6.76955L19.9136 3.05027C19.9132 2.9281 19.9698 2.81762 20.069 2.75204C20.118 2.7206 20.1768 2.69949 20.2446 2.69321H20.2801H20.3803H20.4207C20.6273 2.71117 20.7522 2.86792 20.7517 3.05027L20.7553 6.74933C20.7553 6.86656 20.8501 6.96088 20.9664 6.96088H21.9212C22.0376 6.96088 22.1323 6.86656 22.1323 6.74933V2.77091C22.1323 2.49963 22.1018 2.3842 22.06 2.26563Z" fill="#54C1F0"/>
<path d="M15.5952 1.36517H15.049V0.480373C15.049 0.479475 15.049 0.478577 15.049 0.477679C15.049 0.371234 14.9628 0.285 14.8564 0.285C14.8438 0.285 14.8317 0.286797 14.82 0.289042C14.2146 0.455222 14.3358 1.29375 13.2305 1.36517H13.2058H13.1232C13.107 1.36517 13.0917 1.36741 13.0769 1.37056H13.076L13.0769 1.37101C12.9826 1.39211 12.9116 1.47565 12.9116 1.57626V2.53112C12.9116 2.64744 13.0064 2.74221 13.1232 2.74221H13.6994L13.6985 6.79115C13.6985 6.90658 13.7919 7 13.9074 7H14.8514C14.9664 7 15.0598 6.90658 15.0598 6.79115L15.0603 2.74221H15.5952C15.7115 2.74221 15.8063 2.64744 15.8063 2.53112V1.57626C15.8063 1.45993 15.7115 1.36517 15.5952 1.36517Z" fill="#54C1F0"/>
<path d="M12.1607 1.36516H11.2059C11.0896 1.36516 10.9952 1.45992 10.9952 1.57625V3.55064C10.993 3.67281 10.8942 3.77072 10.7716 3.77072H10.3718C10.2479 3.77072 10.1477 3.67101 10.1477 3.54705L10.1441 1.57625C10.1441 1.45992 10.0494 1.36516 9.93304 1.36516H8.97818C8.86141 1.36516 8.76709 1.45992 8.76709 1.57625V3.74018C8.76709 4.56209 9.35321 5.14821 10.1756 5.14821C10.1756 5.14821 10.7927 5.14821 10.8115 5.1518C10.9229 5.16438 11.0096 5.2578 11.0096 5.37278C11.0096 5.48641 10.9247 5.57938 10.8147 5.5933C10.8093 5.5942 10.8044 5.59555 10.7985 5.59645L9.40217 5.60139C9.28539 5.60139 9.19107 5.69615 9.19107 5.81248V6.76689C9.19107 6.88366 9.28539 6.97798 9.40217 6.97798H10.9634C11.7862 6.97798 12.3718 6.39231 12.3718 5.56995V1.57625C12.3718 1.45992 12.2775 1.36516 12.1607 1.36516Z" fill="#233266"/>
<path d="M2.9182 3.11473V3.56027V3.704C2.9182 3.82751 2.81804 3.92811 2.69453 3.92811L2.08865 3.92856V2.74779H2.69453C2.81804 2.74779 2.9182 2.8475 2.9182 2.97146V3.11473ZM3.00218 1.36491H0.915058C0.800529 1.36491 0.708008 1.45788 0.708008 1.57196V2.5075C0.708008 2.5093 0.708457 2.5111 0.708457 2.51289C0.708457 2.51738 0.708008 2.52188 0.708008 2.52592V5.52658V6.76035C0.708008 6.87533 0.794241 6.9692 0.901135 6.97189H0.919101H1.87396C1.99028 6.97189 2.08505 6.87758 2.08505 6.7608L2.08865 5.30965H3.00218C3.76661 5.30965 4.29928 4.77922 4.29928 4.01165V2.6647C4.29928 1.89713 3.76661 1.36491 3.00218 1.36491Z" fill="#233266"/>
<path d="M6.88002 5.35646V5.50557C6.88002 5.5177 6.87823 5.52938 6.87643 5.5406C6.87419 5.55138 6.87104 5.56171 6.86745 5.57159C6.83781 5.65513 6.75427 5.71577 6.65501 5.71577H6.25753C6.13356 5.71577 6.03251 5.62145 6.03251 5.50557V5.32547C6.03251 5.32322 6.03206 5.32098 6.03206 5.31873L6.03251 4.83951V4.83861V4.78561V4.6895L6.03296 4.68815C6.03341 4.57272 6.13356 4.4793 6.25753 4.4793H6.65501C6.77942 4.4793 6.88002 4.57317 6.88002 4.6895V5.35646ZM6.72822 1.3704H5.40327C5.28605 1.3704 5.19128 1.45932 5.19128 1.56846V1.9399C5.19128 1.94214 5.19173 1.94484 5.19173 1.94708C5.19173 1.94978 5.19128 1.95247 5.19128 1.95517V2.46404C5.19128 2.57946 5.29189 2.67378 5.41585 2.67378H6.67747C6.77717 2.6895 6.85622 2.76226 6.86745 2.87589V2.99896C6.85622 3.1072 6.77807 3.18624 6.68285 3.19523H6.05811C5.22721 3.19523 4.63525 3.74721 4.63525 4.52242V5.60438V5.63268C4.63525 6.40339 5.14412 6.95178 5.96918 6.95178H7.70059C8.01139 6.95178 8.26336 6.71644 8.26336 6.42674V2.80358C8.26336 1.92508 7.81063 1.3704 6.72822 1.3704Z" fill="#233266"/>
</svg>
