<svg width="25" height="24" viewBox="0 0 25 24" fill="none" xmlns="http://www.w3.org/2000/svg">
<path d="M22.5061 14.2923C23.7721 8.93084 20.452 3.55826 15.0906 2.29228C9.72918 1.02629 4.35659 4.34631 3.09061 9.70774C1.82462 15.0692 5.14464 20.4418 10.5061 21.7077C15.8675 22.9737 21.2401 19.6537 22.5061 14.2923Z" fill="#5F259F"/>
<path d="M17.3261 9.3974C17.3261 9.00732 16.9917 8.67296 16.6016 8.67296H15.2642L12.1992 5.16218C11.9206 4.82782 11.4748 4.71637 11.029 4.82782L9.97015 5.16218C9.80297 5.21791 9.74724 5.44081 9.8587 5.55227L13.2023 8.72868H8.13117C7.96399 8.72868 7.85254 8.84014 7.85254 9.00732V9.56458C7.85254 9.95467 8.1869 10.289 8.57698 10.289H9.35716V12.9639C9.35716 14.9701 10.416 16.1403 12.1992 16.1403C12.7565 16.1403 13.2023 16.0846 13.7596 15.8617V17.6449C13.7596 18.1465 14.1496 18.5366 14.6512 18.5366H15.4314C15.5985 18.5366 15.7657 18.3694 15.7657 18.2022V10.2333H17.0474C17.2146 10.2333 17.3261 10.1218 17.3261 9.95467V9.3974ZM13.7596 14.1899C13.4252 14.3571 12.9794 14.4128 12.645 14.4128C11.7534 14.4128 11.3076 13.967 11.3076 12.9639V10.289H13.7596V14.1899Z" fill="white"/>
</svg>
