<svg width="38" height="38" viewBox="0 0 38 38" fill="none" xmlns="http://www.w3.org/2000/svg">
<circle cx="19" cy="19" r="19" fill="#639599"/>
<path d="M31.091 12.69C30.2013 13.0846 29.2451 13.3513 28.2415 13.4712C29.2659 12.8572 30.0525 11.8849 30.4229 10.7264C29.4644 11.2949 28.4026 11.7078 27.2725 11.9304C26.3675 10.9662 25.0781 10.3636 23.6512 10.3636C20.9113 10.3636 18.6899 12.5849 18.6899 15.3247C18.6899 15.7135 18.7338 16.0922 18.8184 16.4553C14.6951 16.2484 11.0395 14.2733 8.59259 11.2718C8.16555 12.0045 7.92089 12.8567 7.92089 13.7659C7.92089 15.4871 8.79683 17.0056 10.128 17.8953C9.31471 17.8695 8.54978 17.6464 7.88082 17.2748C7.88047 17.2955 7.88047 17.3163 7.88047 17.3372C7.88047 19.7409 9.59059 21.7461 11.8602 22.2018C11.4438 22.3152 11.0056 22.3758 10.553 22.3758C10.2334 22.3758 9.92255 22.3448 9.61969 22.2868C10.251 24.2579 12.0832 25.6922 14.2541 25.7323C12.5562 27.0629 10.417 27.856 8.09266 27.856C7.69224 27.856 7.29731 27.8326 6.90918 27.7867C9.10473 29.1944 11.7126 30.0156 14.5143 30.0156C23.6396 30.0156 28.6297 22.4559 28.6297 15.9C28.6297 15.6849 28.625 15.4709 28.6154 15.2582C29.5847 14.5587 30.4258 13.6849 31.091 12.69Z" fill="#1B4B66"/>
</svg>
