<svg width="38" height="38" viewBox="0 0 38 38" fill="none" xmlns="http://www.w3.org/2000/svg">
<circle cx="19" cy="19" r="19" fill="#639599"/>
<path fill-rule="evenodd" clip-rule="evenodd" d="M29.9923 11.686C30.3755 12.069 30.6516 12.5456 30.7931 13.0684C31.6081 16.3474 31.4198 21.526 30.809 24.9316C30.6674 25.4544 30.3913 25.931 30.0082 26.314C29.625 26.6969 29.1481 26.9729 28.6251 27.1144C26.7102 27.6363 19.0034 27.6363 19.0034 27.6363C19.0034 27.6363 11.2965 27.6363 9.38164 27.1144C8.85858 26.9729 8.38172 26.6969 7.99856 26.314C7.6154 25.931 7.3393 25.4544 7.19776 24.9316C6.37802 21.6668 6.60273 16.485 7.18194 13.0842C7.32347 12.5614 7.59957 12.0848 7.98273 11.7018C8.3659 11.3188 8.84275 11.0429 9.36581 10.9014C11.2807 10.3794 18.9875 10.3636 18.9875 10.3636C18.9875 10.3636 26.6944 10.3636 28.6093 10.8856C29.1323 11.0271 29.6092 11.303 29.9923 11.686ZM22.7013 19L16.5325 22.7013V15.2987L22.7013 19Z" fill="#1B4B66"/>
</svg>
