<svg width="68" height="29" viewBox="0 0 68 29" fill="none" xmlns="http://www.w3.org/2000/svg">
<path d="M64.5122 27.7562L54.4375 0.0183036L54.4306 0H54.2317L52.1571 5.70007L48.3802 16.0771L48.3713 16.0689C47.0623 14.9138 45.2155 14.1918 42.8897 13.9229L42.1802 13.8497L42.884 13.7594C46.7196 13.0702 49.2979 10.6478 49.2979 7.72927C49.2979 3.72704 45.5336 0.9335 40.1416 0.9335H28.9226V1.1361H32.1826V21.8163L24.2652 0.0183036L24.2583 0H24.0594L21.9848 5.70007L13.9829 27.6849L13.9336 27.6905C13.7969 27.7074 13.6616 27.7208 13.5278 27.7309C13.3265 27.7467 13.1264 27.7562 12.9257 27.7562H4.84042L20.2093 1.1361L20.3236 0.936019H1.52679V9.17085H1.72624C1.76159 5.15979 4.09753 1.1361 9.25858 1.1361H15.485L0 27.9556H20.8613V20.066H20.6619C20.6347 23.5621 18.6529 26.8826 14.3433 27.6325L14.2063 27.6558L17.4884 18.6346H26.6826L29.9956 27.7562H26.7274V27.9556H39.5546V27.7562H36.2725V13.9968H40.0595C43.9134 13.9968 46.1238 15.7186 46.1238 18.7191V21.1599C46.1238 21.4287 46.1421 21.822 46.1623 22.1508V22.1628L44.1268 27.7549H41.4677V27.9544H46.9721V27.7549H44.3414L46.1951 22.6627C46.1989 22.7119 46.2008 22.7416 46.2008 22.7416L46.2519 23.2004L46.3011 23.504C46.6104 25.3817 47.3287 26.7621 48.4351 27.6066L48.5942 27.7221C49.4349 28.3066 50.4794 28.6026 51.7008 28.6026C53.3184 28.6026 54.3971 28.1993 55.2877 27.25L55.1709 27.1402C54.3504 27.8976 53.6618 28.2043 52.799 28.2043C51.329 28.2043 50.5596 26.4213 50.5596 24.6628V21.2432C50.5674 20.3946 50.4346 19.5507 50.1664 18.7456L50.1298 18.6396V18.6358H56.8549L60.1679 27.7574H56.8997V27.9569H68V27.7574L64.5122 27.7562ZM17.5616 18.4351L22.0908 5.99166L26.61 18.4351H17.5616ZM36.2744 13.7967V1.1361H39.1652C43.0266 1.1361 45.0653 3.43165 45.0653 7.77219C45.0653 12.3885 43.8951 13.7967 40.0595 13.7967H36.2744ZM50.0515 18.4351L50.032 18.3859C49.7331 17.658 49.298 16.9939 48.75 16.4293L48.5607 16.2399L48.5405 16.221L52.2606 5.99166L56.7798 18.4351H50.0515Z" fill="#13101E"/>
</svg>
